<?xml version="1.0" ?><svg data-name="Layer 1" id="Layer_1" viewBox="0 0 64 64" xmlns="http://www.w3.org/2000/svg"><defs><style>.cls-1{fill:#09816c;}.cls-2{fill:#dcdfe2;}.cls-3{fill:#cad0d8;}.cls-4{fill:#4fbe9f;}</style></defs><title/><path class="cls-1" d="M11.3,8.72a3.77,3.77,0,0,0-.86,2.63v41.3a3.77,3.77,0,0,0,.86,2.63l.14.13L34.58,32.27v-.54L11.44,8.59Z"/><path class="cls-2" d="M42.29,40l-7.71-7.72v-.54L42.29,24l.18.1,9.14,5.19c2.61,1.49,2.61,3.91,0,5.4l-9.14,5.19Z"/><path class="cls-3" d="M42.47,39.89,34.58,32,11.3,55.28c.86.91,2.28,1,3.88.11l27.29-15.5"/><path class="cls-4" d="M42.47,24.11,15.18,8.61c-1.6-.91-3-.8-3.88.11L34.58,32Z"/></svg>